<?xml version="1.0" encoding="utf-8"?>
<!-- Generator: Adobe Illustrator 16.0.0, SVG Export Plug-In . SVG Version: 6.00 Build 0)  -->
<!DOCTYPE svg PUBLIC "-//W3C//DTD SVG 1.1//EN" "http://www.w3.org/Graphics/SVG/1.1/DTD/svg11.dtd">
<svg version="1.1" xmlns="http://www.w3.org/2000/svg" xmlns:xlink="http://www.w3.org/1999/xlink" x="0px" y="0px" width="36px"
	 height="36px" viewBox="0 0 36 36" enable-background="new 0 0 36 36" xml:space="preserve">
<g id="Layer_2_1_" display="none">
	<rect x="-0.063" y="0.063" display="inline" fill="#0A0A0A" width="36.25" height="36.125"/>
</g>
<g id="Layer_3_1_">
	<path fill="none" stroke="#5089F9" stroke-width="4" stroke-miterlimit="10" d="M1.438,5.5c7.938,0.813,6.129,8.767,8.375,10.813
		c3.5,3.188,6.38-0.233,9.25,1.375c5.688,3.188-3.375,12.531,6.625,16.469"/>
</g>
<g id="Layer_1">
	<g id="Layer_3" display="none">
		<rect display="inline" fill="#494949" width="36" height="36"/>
	</g>
	<g id="Layer_1_1_" display="none">
		<g id="CIRCLE_1_" display="inline">
			<path fill="#FF0000" stroke="#FF0000" stroke-miterlimit="10" d="M21.572,18.125c0-1.972-1.6-3.571-3.572-3.571
				c-1.972,0-3.571,1.6-3.571,3.571c0,1.973,1.598,3.572,3.571,3.572C19.973,21.697,21.572,20.098,21.572,18.125L21.572,18.125z"/>
		</g>
		<g id="POINT" display="inline">
			
				<line fill="none" stroke="#000000" stroke-width="0.5" stroke-linecap="round" stroke-linejoin="round" stroke-miterlimit="10" x1="34.783" y1="12.547" x2="34.783" y2="12.547"/>
		</g>
		<g id="POINT_1_" display="inline">
			
				<line fill="none" stroke="#000000" stroke-width="0.5" stroke-linecap="round" stroke-linejoin="round" stroke-miterlimit="10" x1="18" y1="0.353" x2="18" y2="0.353"/>
		</g>
		<g id="POINT_2_" display="inline">
			
				<line fill="none" stroke="#000000" stroke-width="0.5" stroke-linecap="round" stroke-linejoin="round" stroke-miterlimit="10" x1="1.217" y1="12.547" x2="1.217" y2="12.547"/>
		</g>
		<g id="POINT_3_" display="inline">
			
				<line fill="none" stroke="#000000" stroke-width="0.5" stroke-linecap="round" stroke-linejoin="round" stroke-miterlimit="10" x1="7.627" y1="32.275" x2="7.627" y2="32.275"/>
		</g>
		<g id="POINT_4_" display="inline">
			
				<line fill="none" stroke="#000000" stroke-width="0.5" stroke-linecap="round" stroke-linejoin="round" stroke-miterlimit="10" x1="28.373" y1="32.275" x2="28.373" y2="32.275"/>
		</g>
		<g id="POINT_6_" display="inline">
			
				<line fill="none" stroke="#FF0000" stroke-width="0.75" stroke-linecap="round" stroke-linejoin="round" stroke-miterlimit="10" x1="20.1" y1="15.235" x2="20.1" y2="15.235"/>
		</g>
		<g id="POINT_8_" display="inline">
			
				<line fill="none" stroke="#FF0000" stroke-width="0.75" stroke-linecap="round" stroke-linejoin="round" stroke-miterlimit="10" x1="15.9" y1="15.235" x2="15.9" y2="15.235"/>
		</g>
		<g id="POINT_10_" display="inline">
			
				<line fill="none" stroke="#FF0000" stroke-width="0.75" stroke-linecap="round" stroke-linejoin="round" stroke-miterlimit="10" x1="14.604" y1="19.229" x2="14.604" y2="19.229"/>
		</g>
		<g id="POINT_12_" display="inline">
			
				<line fill="none" stroke="#FF0000" stroke-width="0.75" stroke-linecap="round" stroke-linejoin="round" stroke-miterlimit="10" x1="18" y1="21.695" x2="18" y2="21.695"/>
		</g>
		<g id="POINT_14_" display="inline">
			
				<line fill="none" stroke="#FF0000" stroke-width="0.75" stroke-linecap="round" stroke-linejoin="round" stroke-miterlimit="10" x1="21.396" y1="19.229" x2="21.396" y2="19.229"/>
		</g>
		<g id="LINE" display="inline">
			
				<line fill="none" stroke="#FF0000" stroke-width="0.75" stroke-linecap="round" stroke-linejoin="round" stroke-miterlimit="10" x1="16.893" y1="1.026" x2="20.1" y2="15.235"/>
		</g>
		<g id="LINE_1_" display="inline">
			
				<line fill="none" stroke="#FF0000" stroke-width="0.75" stroke-linecap="round" stroke-linejoin="round" stroke-miterlimit="10" x1="13.186" y1="1.646" x2="20.1" y2="15.235"/>
		</g>
		<g id="LINE_2_" display="inline">
			
				<line fill="none" stroke="#FF0000" stroke-width="0.75" stroke-linecap="round" stroke-linejoin="round" stroke-miterlimit="10" x1="19.083" y1="1.135" x2="15.9" y2="15.235"/>
		</g>
		<g id="LINE_3_" display="inline">
			
				<line fill="none" stroke="#FF0000" stroke-width="0.75" stroke-linecap="round" stroke-linejoin="round" stroke-miterlimit="10" x1="22.77" y1="1.736" x2="15.9" y2="15.235"/>
		</g>
		<g id="LINE_4_" display="inline">
			
				<line fill="none" stroke="#FF0000" stroke-width="0.75" stroke-linecap="round" stroke-linejoin="round" stroke-miterlimit="10" x1="33.855" y1="11.825" x2="21.396" y2="19.229"/>
		</g>
		<g id="LINE_5_" display="inline">
			
				<line fill="none" stroke="#FF0000" stroke-width="0.75" stroke-linecap="round" stroke-linejoin="round" stroke-miterlimit="10" x1="32.234" y1="8.401" x2="21.396" y2="19.229"/>
		</g>
		<g id="LINE_6_" display="inline">
			
				<line fill="none" stroke="#FF0000" stroke-width="0.75" stroke-linecap="round" stroke-linejoin="round" stroke-miterlimit="10" x1="34.757" y1="13.879" x2="20.1" y2="15.235"/>
		</g>
		<g id="LINE_7_" display="inline">
			
				<line fill="none" stroke="#FF0000" stroke-width="0.75" stroke-linecap="round" stroke-linejoin="round" stroke-miterlimit="10" x1="34.559" y1="17.517" x2="20.1" y2="15.235"/>
		</g>
		<g id="LINE_8_" display="inline">
			
				<line fill="none" stroke="#FF0000" stroke-width="0.75" stroke-linecap="round" stroke-linejoin="round" stroke-miterlimit="10" x1="28.55" y1="30.961" x2="18" y2="21.695"/>
		</g>
		<g id="LINE_9_" display="inline">
			
				<line fill="none" stroke="#FF0000" stroke-width="0.75" stroke-linecap="round" stroke-linejoin="round" stroke-miterlimit="10" x1="31.211" y1="28.438" x2="18" y2="21.695"/>
		</g>
		<g id="LINE_10_" display="inline">
			
				<line fill="none" stroke="#FF0000" stroke-width="0.75" stroke-linecap="round" stroke-linejoin="round" stroke-miterlimit="10" x1="26.947" y1="32.125" x2="21.396" y2="19.229"/>
		</g>
		<g id="LINE_11_" display="inline">
			
				<line fill="none" stroke="#FF0000" stroke-width="0.75" stroke-linecap="round" stroke-linejoin="round" stroke-miterlimit="10" x1="23.715" y1="33.813" x2="21.396" y2="19.229"/>
		</g>
		<g id="LINE_12_" display="inline">
			
				<line fill="none" stroke="#FF0000" stroke-width="0.75" stroke-linecap="round" stroke-linejoin="round" stroke-miterlimit="10" x1="8.947" y1="32.373" x2="14.604" y2="19.229"/>
		</g>
		<g id="LINE_13_" display="inline">
			
				<line fill="none" stroke="#FF0000" stroke-width="0.75" stroke-linecap="round" stroke-linejoin="round" stroke-miterlimit="10" x1="12.296" y1="33.736" x2="14.604" y2="19.229"/>
		</g>
		<g id="LINE_14_" display="inline">
			
				<line fill="none" stroke="#FF0000" stroke-width="0.75" stroke-linecap="round" stroke-linejoin="round" stroke-miterlimit="10" x1="7.285" y1="31.105" x2="18" y2="21.695"/>
		</g>
		<g id="LINE_15_" display="inline">
			
				<line fill="none" stroke="#FF0000" stroke-width="0.75" stroke-linecap="round" stroke-linejoin="round" stroke-miterlimit="10" x1="4.724" y1="28.471" x2="18" y2="21.695"/>
		</g>
		<g id="LINE_16_" display="inline">
			
				<line fill="none" stroke="#FF0000" stroke-width="0.75" stroke-linecap="round" stroke-linejoin="round" stroke-miterlimit="10" x1="1.657" y1="13.918" x2="15.9" y2="15.235"/>
		</g>
		<g id="LINE_17_" display="inline">
			
				<line fill="none" stroke="#FF0000" stroke-width="0.75" stroke-linecap="round" stroke-linejoin="round" stroke-miterlimit="10" x1="1.081" y1="17.573" x2="15.9" y2="15.235"/>
		</g>
		<g id="LINE_18_" display="inline">
			
				<line fill="none" stroke="#FF0000" stroke-width="0.75" stroke-linecap="round" stroke-linejoin="round" stroke-miterlimit="10" x1="2.319" y1="11.931" x2="14.604" y2="19.229"/>
		</g>
		<g id="LINE_19_" display="inline">
			
				<line fill="none" stroke="#FF0000" stroke-width="0.75" stroke-linecap="round" stroke-linejoin="round" stroke-miterlimit="10" x1="3.919" y1="8.556" x2="14.604" y2="19.229"/>
		</g>
		<g id="CIRCLE" display="inline">
			<path fill="none" stroke="#FFFFFF" stroke-width="2" stroke-linecap="round" stroke-linejoin="round" stroke-miterlimit="10" d="
				M34.995,18c0-9.386-7.608-16.995-16.995-16.995C8.614,1.005,1.005,8.614,1.005,18S8.614,34.995,18,34.995
				C27.387,34.995,34.995,27.386,34.995,18L34.995,18z"/>
		</g>
	</g>
	<g id="Layer_4">
		<polygon fill="none" stroke="#FFFFFF" stroke-width="2" stroke-linejoin="round" stroke-miterlimit="10" points="6.625,34.5 
			18.172,2.109 30.292,32.792 1.125,12.854 34.443,13.516 		"/>
	</g>
	<g id="Layer_2" display="none">
		<path display="inline" fill="none" stroke="#C7D3FF" stroke-width="3" stroke-linejoin="round" stroke-miterlimit="10" d="
			M25.375,34.834c-2.541-3.292-5.041-2.438-6.417-3.875c-3.322-3.475,3.798-7.537-0.208-12.292c-2.458-2.917-6.516-0.529-8.75-2.542
			C5.792,12.333,9.719,6.094,2.188,5.375"/>
	</g>
</g>
</svg>
