<?xml version="1.0" encoding="utf-8"?>
<!-- Generator: Adobe Illustrator 16.0.0, SVG Export Plug-In . SVG Version: 6.00 Build 0)  -->
<!DOCTYPE svg PUBLIC "-//W3C//DTD SVG 1.1//EN" "http://www.w3.org/Graphics/SVG/1.1/DTD/svg11.dtd">
<svg version="1.1" id="Layer_1" xmlns="http://www.w3.org/2000/svg" xmlns:xlink="http://www.w3.org/1999/xlink" x="0px" y="0px"
	 width="566px" height="50px" viewBox="0 0 566 50" enable-background="new 0 0 566 50" xml:space="preserve">
<g id="layer1">
	<path id="path2558" fill="#818282" d="M75.54,46.916c-0.471-0.156-0.844-0.502-0.95-0.885c-0.042-0.154-0.063-3.277-0.063-9.717
		v-9.492h-0.238h-0.238v3.584c0,3.512-0.002,3.586-0.123,3.799c-0.156,0.275-0.332,0.404-0.676,0.496
		c-0.509,0.137-1.064-0.123-1.265-0.59c-0.128-0.301-0.12-8.309,0.009-8.805c0.292-1.119,1.236-2.036,2.337-2.269
		c0.579-0.124,5.94-0.125,6.52-0.002c0.589,0.125,1.095,0.406,1.542,0.86c0.461,0.467,0.676,0.846,0.836,1.473
		c0.111,0.436,0.117,0.67,0.117,4.475c0,3.48-0.012,4.045-0.091,4.236c-0.124,0.295-0.251,0.428-0.534,0.559
		c-0.471,0.215-1.068,0.076-1.348-0.313l-0.143-0.201l-0.016-3.65l-0.017-3.652h-0.237h-0.236v9.539
		c0,10.455,0.023,9.76-0.347,10.15c-0.292,0.307-0.589,0.424-1.085,0.424c-0.494,0-0.792-0.117-1.084-0.424
		c-0.362-0.383-0.346-0.086-0.346-6.217v-5.605h-0.238h-0.238v5.605c0,4.566-0.016,5.639-0.08,5.795
		c-0.121,0.287-0.382,0.57-0.656,0.709C76.387,46.934,75.787,46.996,75.54,46.916z M76.879,22.369
		c-0.721-0.257-1.166-0.654-1.48-1.319c-0.175-0.368-0.188-0.439-0.188-1.052c0-0.62,0.012-0.679,0.193-1.048
		c0.908-1.846,3.531-1.85,4.438-0.008c0.188,0.382,0.197,0.43,0.197,1.086c0,0.631-0.014,0.714-0.168,1.026
		c-0.256,0.524-0.637,0.906-1.155,1.162c-0.403,0.199-0.505,0.224-0.993,0.241C77.313,22.471,77.104,22.449,76.879,22.369z"/>
</g>
<g id="layer1_2_">
	<path id="path2558_2_" fill="#818282" d="M161.292,44.916c-0.471-0.156-0.844-0.502-0.95-0.885
		c-0.042-0.154-0.063-3.277-0.063-9.717v-9.492h-0.238h-0.238v3.584c0,3.512-0.002,3.586-0.123,3.799
		c-0.156,0.275-0.332,0.404-0.676,0.496c-0.509,0.137-1.064-0.123-1.265-0.59c-0.128-0.301-0.12-8.309,0.009-8.805
		c0.292-1.119,1.236-2.036,2.337-2.269c0.579-0.124,5.94-0.125,6.52-0.002c0.589,0.125,1.095,0.406,1.542,0.86
		c0.461,0.467,0.676,0.846,0.836,1.473c0.111,0.436,0.117,0.67,0.117,4.475c0,3.48-0.012,4.045-0.091,4.236
		c-0.124,0.295-0.251,0.428-0.534,0.559c-0.471,0.215-1.068,0.076-1.348-0.313l-0.143-0.201l-0.016-3.65l-0.017-3.652h-0.237h-0.236
		v9.539c0,10.455,0.023,9.76-0.347,10.15c-0.292,0.307-0.589,0.424-1.085,0.424c-0.494,0-0.792-0.117-1.084-0.424
		c-0.362-0.383-0.346-0.086-0.346-6.217v-5.605h-0.238h-0.238v5.605c0,4.566-0.016,5.639-0.08,5.795
		c-0.121,0.287-0.382,0.57-0.656,0.709C162.139,44.934,161.539,44.996,161.292,44.916z M162.631,20.369
		c-0.721-0.257-1.166-0.654-1.48-1.319c-0.175-0.368-0.188-0.439-0.188-1.052c0-0.62,0.012-0.679,0.193-1.048
		c0.908-1.846,3.531-1.85,4.438-0.008c0.188,0.382,0.197,0.43,0.197,1.086c0,0.631-0.014,0.714-0.168,1.026
		c-0.256,0.524-0.637,0.906-1.155,1.162c-0.403,0.199-0.505,0.224-0.993,0.241C163.065,20.471,162.856,20.449,162.631,20.369z"/>
</g>
<path id="path2323" fill="#818282" d="M218.598,22.87c-1.82,0-2.785,0.992-3.229,2.154l-2.363,6.104
	c-0.938,0.119-2.6,1.219-2.6,3.303v7.762h2.301v2.48c0,3.055,4.322,3.02,4.322,0v-2.48h7.773h0.002h7.773v2.48
	c0,3.02,4.322,3.055,4.322,0v-2.48h2.301v-7.762c0-2.084-1.66-3.184-2.6-3.303l-2.365-6.104c-0.445-1.162-1.41-2.154-3.227-2.154
	h-3.342h-5.689H218.598z M218.568,25.092h6.229h0.006h0.002h6.232c0.779,0.007,1.111,0.495,1.336,1.168l1.781,4.803h-9.35h-0.002
	h-0.006h-9.346l1.781-4.803C217.455,25.587,217.789,25.099,218.568,25.092z M214.938,33.399c1.102,0,1.996,0.92,1.996,2.057
	s-0.895,2.059-1.996,2.059s-1.996-0.922-1.996-2.059S213.836,33.399,214.938,33.399z M234.67,33.399c1.104,0,1.996,0.92,1.996,2.057
	s-0.893,2.059-1.996,2.059s-1.998-0.922-1.998-2.059S233.566,33.399,234.67,33.399z"/>
<path id="path2323_1_" d="M405.696,22.87c-1.82,0-2.785,0.992-3.229,2.154l-2.363,6.104c-0.938,0.119-2.6,1.219-2.6,3.303v7.762
	h2.301v2.48c0,3.055,4.322,3.02,4.322,0v-2.48h7.773h0.002h7.773v2.48c0,3.02,4.322,3.055,4.322,0v-2.48h2.301v-7.762
	c0-2.084-1.66-3.184-2.6-3.303l-2.365-6.104c-0.445-1.162-1.41-2.154-3.227-2.154h-3.342h-5.689H405.696z M405.667,25.092h6.229
	h0.006h0.002h6.232c0.779,0.007,1.111,0.495,1.336,1.168l1.781,4.803h-9.35h-0.002h-0.006h-9.346l1.781-4.803
	C404.554,25.587,404.888,25.099,405.667,25.092z"/>
<path id="path2323_2_" d="M437.636,22.87c-1.82,0-2.785,0.992-3.229,2.154l-2.363,6.104c-0.938,0.119-2.6,1.219-2.6,3.303v7.762
	h2.301v2.48c0,3.055,4.322,3.02,4.322,0v-2.48h7.773h0.002h7.773v2.48c0,3.02,4.322,3.055,4.322,0v-2.48h2.301v-7.762
	c0-2.084-1.66-3.184-2.6-3.303l-2.365-6.104c-0.445-1.162-1.41-2.154-3.227-2.154h-3.342h-5.689H437.636z M437.606,25.092h6.229
	h0.006h0.002h6.232c0.779,0.007,1.111,0.495,1.336,1.168l1.781,4.803h-9.35h-0.002h-0.006h-9.346l1.781-4.803
	C436.493,25.587,436.827,25.099,437.606,25.092z"/>
<g>
	<path d="M26.861,23.868c1.368,0,2.487-1.118,2.487-2.486s-1.119-2.487-2.487-2.487c-1.382,0-2.487,1.121-2.487,2.488
		C24.374,22.751,25.479,23.868,26.861,23.868z M31.007,33.818c-3.814,0-6.91,3.096-6.91,6.912c0,3.813,3.096,6.908,6.91,6.908
		s6.91-3.096,6.91-6.908C37.917,36.914,34.821,33.818,31.007,33.818z M31.007,45.566c-2.666,0-4.837-2.17-4.837-4.836
		c0-2.67,2.171-4.838,4.837-4.838c2.667,0,4.838,2.168,4.838,4.838C35.845,43.396,33.674,45.566,31.007,45.566z M25.202,31.055
		h5.805c0,0,1.154-0.195,1.154-1.305c0-1.111-1.154-1.182-1.154-1.182h-4.422l-2.668-4.519c-0.414-0.691-1.161-1.147-2.018-1.147
		c-0.648,0-1.229,0.261-1.658,0.691l-5.113,5.112c-0.442,0.416-0.705,1.01-0.705,1.658c0,0.871,0.457,1.604,1.176,2.033l4.629,2.805
		v6.91l1.23,1.059l1.258-1.059v-8.955l-3.109-2.309l3.206-3.219L25.202,31.055z M11.659,33.818c-3.814,0-6.91,3.096-6.91,6.912
		c0,3.813,3.096,6.908,6.91,6.908s6.91-3.096,6.91-6.908C18.569,36.914,15.474,33.818,11.659,33.818z M11.659,45.566
		c-2.667,0-4.837-2.17-4.837-4.836c0-2.67,2.17-4.838,4.837-4.838s4.837,2.168,4.837,4.838
		C16.496,43.396,14.326,45.566,11.659,45.566z M20.228,42.111c0,0,0.105,1.059,1.23,1.059s1.258-1.059,1.258-1.059"/>
</g>
<g>
	<path d="M118.917,47.639V33.338c0.72,0.352,1.494,0.6,2.303,0.73c0.443,0.07,0.896,0.109,1.344,0.109l0,0
		c4.088,0,7.534-2.934,8.193-6.975c0.242-1.496,0.074-3.009-0.475-4.394c1.398-1.176,2.334-2.809,2.635-4.66
		c0.331-2.035-0.15-4.078-1.355-5.752c-1.205-1.673-2.99-2.777-5.026-3.109c-0.213-0.035-0.428-0.061-0.643-0.077
		c0.056-4.427-3.14-8.359-7.639-9.092C117.766,0.04,117.272,0,116.783,0c-4.479,0-8.253,3.212-8.974,7.64
		c-0.059,0.356-0.096,0.716-0.111,1.078c-1.9,1.057-3.238,2.929-3.594,5.115c-0.111,0.691-0.123,1.397-0.031,2.087
		c-1.659,1.093-2.824,2.852-3.147,4.843c-0.522,3.199,1.216,6.332,4.069,7.66c0.258,3.225,2.689,5.955,5.995,6.492
		c0.383,0.064,0.774,0.096,1.158,0.096c1.228,0,2.413-0.326,3.454-0.902v13.529 M112.148,31.695c-0.206,0-0.417-0.018-0.626-0.051
		c-2.018-0.33-3.43-2.178-3.213-4.207c0.088-0.824-0.443-1.586-1.247-1.786c-1.927-0.481-3.185-2.396-2.864-4.355
		c0.221-1.352,1.111-2.459,2.386-2.965c0.825-0.328,1.243-1.247,0.954-2.085c-0.21-0.608-0.266-1.24-0.161-1.879
		c0.228-1.4,1.202-2.559,2.544-3.025c0.719-0.25,1.176-0.957,1.107-1.715c-0.043-0.482-0.025-0.971,0.053-1.455
		c0.459-2.814,2.855-4.857,5.702-4.857c0.312,0,0.627,0.026,0.938,0.077c3.148,0.512,5.293,3.489,4.779,6.64
		c-0.027,0.171-0.066,0.353-0.115,0.536c-0.146,0.557,0.01,1.153,0.408,1.57c0.402,0.416,0.988,0.594,1.555,0.468
		c0.541-0.119,1.104-0.136,1.656-0.045c2.396,0.391,4.029,2.658,3.639,5.058c-0.222,1.367-1.053,2.527-2.279,3.182
		c-0.41,0.217-0.707,0.598-0.824,1.044c-0.117,0.451-0.04,0.926,0.211,1.317c0.672,1.039,0.934,2.284,0.734,3.506
		c-0.396,2.432-2.467,4.193-4.922,4.193c-0.269,0-0.541-0.023-0.811-0.064c-1.268-0.207-2.396-0.885-3.173-1.91
		c-0.361-0.475-0.95-0.721-1.542-0.639c-0.592,0.08-1.095,0.471-1.316,1.025C115.141,30.723,113.706,31.695,112.148,31.695z"/>
</g>
<rect y="47" fill="#1574FF" width="41.853" height="3"/>
<rect x="64.375" y="47" fill="#0B7C53" width="41.853" height="3"/>
<rect x="208.24" y="47" fill="#ACEA3F" width="63.878" height="3"/>
<rect x="332.627" y="47" fill="#E87442" width="63.878" height="3"/>
<path id="path2323_4_" d="M341.818,22.87c-1.82,0-2.785,0.992-3.229,2.154l-2.363,6.104c-0.938,0.119-2.6,1.219-2.6,3.303v7.762
	h2.301v2.48c0,3.055,4.322,3.02,4.322,0v-2.48h7.773h0.002h7.773v2.48c0,3.02,4.322,3.055,4.322,0v-2.48h2.301v-7.762
	c0-2.084-1.66-3.184-2.6-3.303l-2.365-6.104c-0.445-1.162-1.41-2.154-3.227-2.154h-3.342h-5.689H341.818z M341.789,25.092h6.229
	h0.006h0.002h6.232c0.779,0.007,1.111,0.495,1.336,1.168l1.781,4.803h-9.35h-0.002h-0.006h-9.346l1.781-4.803
	C340.676,25.587,341.01,25.099,341.789,25.092z M338.158,33.399c1.102,0,1.996,0.92,1.996,2.057s-0.895,2.059-1.996,2.059
	s-1.996-0.922-1.996-2.059S337.057,33.399,338.158,33.399z M357.891,33.399c1.104,0,1.996,0.92,1.996,2.057
	s-0.893,2.059-1.996,2.059s-1.998-0.922-1.998-2.059S356.787,33.399,357.891,33.399z"/>
<path id="path2323_3_" d="M373.758,22.87c-1.82,0-2.785,0.992-3.229,2.154l-2.363,6.104c-0.938,0.119-2.6,1.219-2.6,3.303v7.762
	h2.301v2.48c0,3.055,4.322,3.02,4.322,0v-2.48h7.773h0.002h7.773v2.48c0,3.02,4.322,3.055,4.322,0v-2.48h2.301v-7.762
	c0-2.084-1.66-3.184-2.6-3.303l-2.365-6.104c-0.445-1.162-1.41-2.154-3.227-2.154h-3.342h-5.689H373.758z M373.729,25.092h6.229
	h0.006h0.002h6.232c0.779,0.007,1.111,0.495,1.336,1.168l1.781,4.803h-9.35h-0.002h-0.006h-9.346l1.781-4.803
	C372.615,25.587,372.949,25.099,373.729,25.092z M370.098,33.399c1.102,0,1.996,0.92,1.996,2.057s-0.895,2.059-1.996,2.059
	s-1.996-0.922-1.996-2.059S368.996,33.399,370.098,33.399z M389.83,33.399c1.104,0,1.996,0.92,1.996,2.057s-0.893,2.059-1.996,2.059
	s-1.998-0.922-1.998-2.059S388.727,33.399,389.83,33.399z"/>
<rect x="396.505" y="47" fill="#E87442" width="63.878" height="3"/>
<rect x="149.25" y="45" fill="#0B7C53" width="8.396" height="3"/>
<rect x="161.313" y="45" fill="#0B7C53" width="7.646" height="3"/>
<rect x="172.563" y="45" fill="#0B7C53" width="7.646" height="3"/>
<rect x="183.457" y="45" fill="#0B7C53" width="7.646" height="3"/>
<g id="layer1_4_">
	<path id="path2558_4_" d="M285.924,44.916c-0.471-0.156-0.844-0.502-0.951-0.885c-0.041-0.154-0.063-3.277-0.063-9.717v-9.492
		h-0.238h-0.238v3.584c0,3.512-0.002,3.586-0.123,3.799c-0.156,0.275-0.332,0.404-0.676,0.496c-0.51,0.137-1.064-0.123-1.266-0.59
		c-0.127-0.301-0.119-8.309,0.01-8.805c0.291-1.119,1.236-2.036,2.336-2.269c0.58-0.124,5.941-0.125,6.52-0.002
		c0.59,0.125,1.096,0.406,1.543,0.86c0.461,0.467,0.676,0.846,0.836,1.473c0.111,0.436,0.117,0.67,0.117,4.475
		c0,3.48-0.012,4.045-0.092,4.236c-0.123,0.295-0.25,0.428-0.533,0.559c-0.471,0.215-1.068,0.076-1.348-0.313l-0.143-0.201
		l-0.016-3.65l-0.018-3.652h-0.236h-0.236v9.539c0,10.455,0.023,9.76-0.348,10.15c-0.291,0.307-0.588,0.424-1.084,0.424
		c-0.494,0-0.793-0.117-1.084-0.424c-0.363-0.383-0.346-0.086-0.346-6.217v-5.605h-0.238h-0.238v5.605
		c0,4.566-0.016,5.639-0.08,5.795c-0.121,0.287-0.383,0.57-0.656,0.709C286.771,44.934,286.17,44.996,285.924,44.916z
		 M287.264,20.369c-0.721-0.257-1.166-0.654-1.48-1.319c-0.176-0.368-0.188-0.439-0.188-1.052c0-0.62,0.012-0.679,0.193-1.048
		c0.908-1.846,3.531-1.85,4.438-0.008c0.188,0.382,0.197,0.43,0.197,1.086c0,0.631-0.014,0.714-0.168,1.026
		c-0.256,0.524-0.637,0.906-1.156,1.162c-0.402,0.199-0.504,0.224-0.992,0.241C287.697,20.471,287.488,20.449,287.264,20.369z"/>
</g>
<g id="layer1_1_">
	<path id="path2558_1_" d="M525.504,44.916c-0.471-0.156-0.844-0.502-0.951-0.885c-0.041-0.154-0.063-3.277-0.063-9.717v-9.492
		h-0.238h-0.238v3.584c0,3.512-0.002,3.586-0.123,3.799c-0.156,0.275-0.332,0.404-0.676,0.496c-0.51,0.137-1.064-0.123-1.266-0.59
		c-0.127-0.301-0.119-8.309,0.01-8.805c0.291-1.119,1.236-2.036,2.336-2.269c0.58-0.124,5.941-0.125,6.52-0.002
		c0.59,0.125,1.096,0.406,1.543,0.86c0.461,0.467,0.676,0.846,0.836,1.473c0.111,0.436,0.117,0.67,0.117,4.475
		c0,3.48-0.012,4.045-0.092,4.236c-0.123,0.295-0.25,0.428-0.533,0.559c-0.471,0.215-1.068,0.076-1.348-0.313l-0.143-0.201
		l-0.016-3.65l-0.018-3.652h-0.236h-0.236v9.539c0,10.455,0.023,9.76-0.348,10.15c-0.291,0.307-0.588,0.424-1.084,0.424
		c-0.494,0-0.793-0.117-1.084-0.424c-0.363-0.383-0.346-0.086-0.346-6.217v-5.605h-0.238h-0.238v5.605
		c0,4.566-0.016,5.639-0.08,5.795c-0.121,0.287-0.383,0.57-0.656,0.709C526.352,44.934,525.75,44.996,525.504,44.916z
		 M526.844,20.369c-0.721-0.257-1.166-0.654-1.48-1.319c-0.176-0.368-0.188-0.439-0.188-1.052c0-0.62,0.012-0.679,0.193-1.048
		c0.908-1.846,3.531-1.85,4.438-0.008c0.188,0.382,0.197,0.43,0.197,1.086c0,0.631-0.014,0.714-0.168,1.026
		c-0.256,0.524-0.637,0.906-1.156,1.162c-0.402,0.199-0.504,0.224-0.992,0.241C527.277,20.471,527.068,20.449,526.844,20.369z"/>
</g>
<g id="layer1_3_">
	<path id="path2558_3_" d="M555.904,44.916c-0.471-0.156-0.844-0.502-0.951-0.885c-0.041-0.154-0.063-3.277-0.063-9.717v-9.492
		h-0.238h-0.238v3.584c0,3.512-0.002,3.586-0.123,3.799c-0.156,0.275-0.332,0.404-0.676,0.496c-0.51,0.137-1.064-0.123-1.266-0.59
		c-0.127-0.301-0.119-8.309,0.01-8.805c0.291-1.119,1.236-2.036,2.336-2.269c0.58-0.124,5.941-0.125,6.52-0.002
		c0.59,0.125,1.096,0.406,1.543,0.86c0.461,0.467,0.676,0.846,0.836,1.473c0.111,0.436,0.117,0.67,0.117,4.475
		c0,3.48-0.012,4.045-0.092,4.236c-0.123,0.295-0.25,0.428-0.533,0.559c-0.471,0.215-1.068,0.076-1.348-0.313l-0.143-0.201
		l-0.016-3.65l-0.018-3.652h-0.236h-0.236v9.539c0,10.455,0.023,9.76-0.348,10.15c-0.291,0.307-0.588,0.424-1.084,0.424
		c-0.494,0-0.793-0.117-1.084-0.424c-0.363-0.383-0.346-0.086-0.346-6.217v-5.605h-0.238h-0.238v5.605
		c0,4.566-0.016,5.639-0.08,5.795c-0.121,0.287-0.383,0.57-0.656,0.709C556.752,44.934,556.15,44.996,555.904,44.916z
		 M557.244,20.369c-0.721-0.257-1.166-0.654-1.48-1.319c-0.176-0.368-0.188-0.439-0.188-1.052c0-0.62,0.012-0.679,0.193-1.048
		c0.908-1.846,3.531-1.85,4.438-0.008c0.188,0.382,0.197,0.43,0.197,1.086c0,0.631-0.014,0.714-0.168,1.026
		c-0.256,0.524-0.637,0.906-1.156,1.162c-0.402,0.199-0.504,0.224-0.992,0.241C557.678,20.471,557.469,20.449,557.244,20.369z"/>
</g>
<g id="layer1_5_">
	<path id="path2558_5_" d="M540.64,44.916c-0.471-0.156-0.844-0.502-0.951-0.885c-0.041-0.154-0.063-3.277-0.063-9.717v-9.492
		h-0.238h-0.238v3.584c0,3.512-0.002,3.586-0.123,3.799c-0.156,0.275-0.332,0.404-0.676,0.496c-0.51,0.137-1.064-0.123-1.266-0.59
		c-0.127-0.301-0.119-8.309,0.01-8.805c0.291-1.119,1.236-2.036,2.336-2.269c0.58-0.124,5.941-0.125,6.52-0.002
		c0.59,0.125,1.096,0.406,1.543,0.86c0.461,0.467,0.676,0.846,0.836,1.473c0.111,0.436,0.117,0.67,0.117,4.475
		c0,3.48-0.012,4.045-0.092,4.236c-0.123,0.295-0.25,0.428-0.533,0.559c-0.471,0.215-1.068,0.076-1.348-0.313l-0.143-0.201
		l-0.016-3.65l-0.018-3.652h-0.236h-0.236v9.539c0,10.455,0.023,9.76-0.348,10.15c-0.291,0.307-0.588,0.424-1.084,0.424
		c-0.494,0-0.793-0.117-1.084-0.424c-0.363-0.383-0.346-0.086-0.346-6.217v-5.605h-0.238h-0.238v5.605
		c0,4.566-0.016,5.639-0.08,5.795c-0.121,0.287-0.383,0.57-0.656,0.709C541.487,44.934,540.886,44.996,540.64,44.916z
		 M541.979,20.369c-0.721-0.257-1.166-0.654-1.48-1.319c-0.176-0.368-0.188-0.439-0.188-1.052c0-0.62,0.012-0.679,0.193-1.048
		c0.908-1.846,3.531-1.85,4.438-0.008c0.188,0.382,0.197,0.43,0.197,1.086c0,0.631-0.014,0.714-0.168,1.026
		c-0.256,0.524-0.637,0.906-1.156,1.162c-0.402,0.199-0.504,0.224-0.992,0.241C542.413,20.471,542.204,20.449,541.979,20.369z"/>
</g>
<rect x="272.118" y="45" fill="#ACEA3F" width="8.396" height="3"/>
<rect x="284.181" y="45" fill="#ACEA3F" width="7.646" height="3"/>
<rect x="295.431" y="45" fill="#ACEA3F" width="7.646" height="3"/>
<rect x="306.324" y="45" fill="#ACEA3F" width="7.646" height="3"/>
<rect x="460.383" y="45" fill="#E87442" width="8.396" height="3"/>
<rect x="472.445" y="45" fill="#E87442" width="7.646" height="3"/>
<rect x="483.695" y="45" fill="#E87442" width="7.646" height="3"/>
<rect x="494.589" y="45" fill="#E87442" width="7.646" height="3"/>
<rect x="521.858" y="45" fill="#E87442" width="8.396" height="3"/>
<rect x="533.921" y="45" fill="#E87442" width="7.646" height="3"/>
<rect x="545.171" y="45" fill="#E87442" width="7.646" height="3"/>
<rect x="556.064" y="45" fill="#E87442" width="7.646" height="3"/>
<rect x="106.228" y="47" width="22.189" height="3"/>
<path fill="#FFFFFF" stroke="#231F20" stroke-width="2" stroke-linecap="round" stroke-miterlimit="10" d="M461.906,25.997
	c0,0,1.812,2.188,1.812,5.37c0,3.181-1.812,5.96-1.812,5.96"/>
<path fill="#FFFFFF" stroke="#231F20" stroke-width="2" stroke-linecap="round" stroke-miterlimit="10" d="M466.068,24.104
	c0,0,2.415,2.919,2.415,7.163c0,4.243-2.415,7.95-2.415,7.95"/>
<path fill="#FFFFFF" stroke="#231F20" stroke-width="2" stroke-linecap="round" stroke-miterlimit="10" d="M470.527,22.87
	c0,0,2.812,3.396,2.812,8.333s-2.812,9.25-2.812,9.25"/>
</svg>
